<?xml version="1.0" encoding="UTF-8"?>
<svg version="1.1" xmlns="http://www.w3.org/2000/svg" width="44" height="68">
<path d="M0,0 L16,0 L16,4 L20,4 L20,0 L36,0 L36,4 L40,4 L40,24 L36,24 L36,28 L32,28 L32,32 L28,32 L28,36 L24,36 L24,40 L20,40 L20,44 L16,44 L16,40 L12,40 L12,36 L8,36 L8,32 L4,32 L4,28 L0,28 L0,24 L-4,24 L-4,4 L0,4 Z M4,8 L4,20 L8,20 L8,24 L12,24 L12,28 L16,28 L16,32 L20,32 L20,28 L24,28 L24,24 L28,24 L28,20 L32,20 L32,8 L24,8 L24,12 L12,12 L12,8 Z " fill="#000000" transform="translate(4,12)"/>
</svg>
