<?xml version="1.0" encoding="UTF-8"?>
<svg version="1.1" xmlns="http://www.w3.org/2000/svg" width="44" height="68">
<path d="M0,0 L4,0 L4,4 L8,4 L8,8 L12,8 L12,12 L16,12 L16,16 L20,16 L20,20 L24,20 L24,24 L20,24 L20,28 L16,28 L16,32 L12,32 L12,36 L8,36 L8,40 L4,40 L4,44 L0,44 L0,40 L-4,40 L-4,36 L-8,36 L-8,32 L-12,32 L-12,28 L-16,28 L-16,24 L-20,24 L-20,20 L-16,20 L-16,16 L-12,16 L-12,12 L-8,12 L-8,8 L-4,8 L-4,4 L0,4 Z M0,12 L0,16 L-4,16 L-4,20 L-8,20 L-8,24 L-4,24 L-4,28 L0,28 L0,32 L4,32 L4,28 L8,28 L8,24 L12,24 L12,20 L8,20 L8,16 L4,16 L4,12 Z " fill="#000000" transform="translate(20,12)"/>
</svg>
