<?xml version="1.0" encoding="UTF-8"?>
<svg version="1.1" xmlns="http://www.w3.org/2000/svg" width="80" height="68">
<path d="M0 0 C2.64 0 5.28 0 8 0 C8 1.32 8 2.64 8 4 C9.32 4 10.64 4 12 4 C12 6.64 12 9.28 12 12 C14.64 12 17.28 12 20 12 C20 13.32 20 14.64 20 16 C21.32 16 22.64 16 24 16 C24 18.64 24 21.28 24 24 C22.68 24 21.36 24 20 24 C20 25.32 20 26.64 20 28 C17.36 28 14.72 28 12 28 C12 26.68 12 25.36 12 24 C10.68 24 9.36 24 8 24 C8 27.96 8 31.92 8 36 C5.36 36 2.72 36 0 36 C0 32.04 0 28.08 0 24 C-1.32 24 -2.64 24 -4 24 C-4 25.32 -4 26.64 -4 28 C-6.64 28 -9.28 28 -12 28 C-12 26.68 -12 25.36 -12 24 C-13.32 24 -14.64 24 -16 24 C-16 21.36 -16 18.72 -16 16 C-14.68 16 -13.36 16 -12 16 C-12 14.68 -12 13.36 -12 12 C-9.36 12 -6.72 12 -4 12 C-4 9.36 -4 6.72 -4 4 C-2.68 4 -1.36 4 0 4 C0 2.68 0 1.36 0 0 Z M-4 12 C-4 13.32 -4 14.64 -4 16 C-2.68 16 -1.36 16 0 16 C0 14.68 0 13.36 0 12 C-1.32 12 -2.64 12 -4 12 Z M8 12 C8 13.32 8 14.64 8 16 C9.32 16 10.64 16 12 16 C12 14.68 12 13.36 12 12 C10.68 12 9.36 12 8 12 Z " fill="#000000" transform="translate(16,20)"/>
</svg>
