<?xml version="1.0" encoding="UTF-8"?>
<svg version="1.1" xmlns="http://www.w3.org/2000/svg" width="48" height="68">
<path d="M0 0 C5.28 0 10.56 0 16 0 C16 1.32 16 2.64 16 4 C17.32 4 18.64 4 20 4 C20 6.64 20 9.28 20 12 C22.64 12 25.28 12 28 12 C28 13.32 28 14.64 28 16 C29.32 16 30.64 16 32 16 C32 21.28 32 26.56 32 32 C30.68 32 29.36 32 28 32 C28 33.32 28 34.64 28 36 C24.04 36 20.08 36 16 36 C16 34.68 16 33.36 16 32 C14.68 32 13.36 32 12 32 C12 35.96 12 39.92 12 44 C9.36 44 6.72 44 4 44 C4 40.04 4 36.08 4 32 C2.68 32 1.36 32 0 32 C0 33.32 0 34.64 0 36 C-3.96 36 -7.92 36 -12 36 C-12 34.68 -12 33.36 -12 32 C-13.32 32 -14.64 32 -16 32 C-16 26.72 -16 21.44 -16 16 C-14.68 16 -13.36 16 -12 16 C-12 14.68 -12 13.36 -12 12 C-9.36 12 -6.72 12 -4 12 C-4 9.36 -4 6.72 -4 4 C-2.68 4 -1.36 4 0 4 C0 2.68 0 1.36 0 0 Z " fill="#000000" transform="translate(16,12)"/>
</svg>
