<?xml version="1.0" encoding="UTF-8"?>
<svg version="1.1" xmlns="http://www.w3.org/2000/svg" width="48" height="68">
<path d="M0 0 C2.64 0 5.28 0 8 0 C8 1.32 8 2.64 8 4 C9.32 4 10.64 4 12 4 C12 5.32 12 6.64 12 8 C13.32 8 14.64 8 16 8 C16 9.32 16 10.64 16 12 C17.32 12 18.64 12 20 12 C20 13.32 20 14.64 20 16 C21.32 16 22.64 16 24 16 C24 17.32 24 18.64 24 20 C25.32 20 26.64 20 28 20 C28 25.28 28 30.56 28 36 C26.68 36 25.36 36 24 36 C24 37.32 24 38.64 24 40 C20.04 40 16.08 40 12 40 C12 38.68 12 37.36 12 36 C10.68 36 9.36 36 8 36 C8 38.64 8 41.28 8 44 C5.36 44 2.72 44 0 44 C0 41.36 0 38.72 0 36 C-1.32 36 -2.64 36 -4 36 C-4 37.32 -4 38.64 -4 40 C-7.96 40 -11.92 40 -16 40 C-16 38.68 -16 37.36 -16 36 C-17.32 36 -18.64 36 -20 36 C-20 30.72 -20 25.44 -20 20 C-18.68 20 -17.36 20 -16 20 C-16 18.68 -16 17.36 -16 16 C-14.68 16 -13.36 16 -12 16 C-12 14.68 -12 13.36 -12 12 C-10.68 12 -9.36 12 -8 12 C-8 10.68 -8 9.36 -8 8 C-6.68 8 -5.36 8 -4 8 C-4 6.68 -4 5.36 -4 4 C-2.68 4 -1.36 4 0 4 C0 2.68 0 1.36 0 0 Z M0 12 C0 13.32 0 14.64 0 16 C-1.32 16 -2.64 16 -4 16 C-4 17.32 -4 18.64 -4 20 C-5.32 20 -6.64 20 -8 20 C-8 21.32 -8 22.64 -8 24 C-9.32 24 -10.64 24 -12 24 C-12 26.64 -12 29.28 -12 32 C-10.68 32 -9.36 32 -8 32 C-8 30.68 -8 29.36 -8 28 C-0.08 28 7.84 28 16 28 C16 29.32 16 30.64 16 32 C17.32 32 18.64 32 20 32 C20 29.36 20 26.72 20 24 C18.68 24 17.36 24 16 24 C16 22.68 16 21.36 16 20 C14.68 20 13.36 20 12 20 C12 18.68 12 17.36 12 16 C10.68 16 9.36 16 8 16 C8 14.68 8 13.36 8 12 C5.36 12 2.72 12 0 12 Z " fill="#000000" transform="translate(20,12)"/>
</svg>
